<svg xmlns="http://www.w3.org/2000/svg" xmlns:xlink="http://www.w3.org/1999/xlink" fill="none" version="1.1" width="56" height="56" viewBox="0 0 56 56"><g style="mix-blend-mode:passthrough"><g><ellipse cx="28" cy="28" rx="28" ry="28"  fill-opacity="1"/></g><g><path d="M38.19340825195313,26.800830322265625C38.19340825195313,26.800830322265625,29.199108251953128,26.800830322265625,29.199108251953128,26.800830322265625C29.199108251953128,26.800830322265625,29.199108251953128,17.806560322265625,29.199108251953128,17.806560322265625C29.199108251953128,17.146980322265627,28.659508251953127,16.607330322265625,27.999908251953123,16.607330322265625C27.340308251953125,16.607330322265625,26.800708251953125,17.146980322265627,26.800708251953125,17.806560322265625C26.800708251953125,17.806560322265625,26.800708251953125,26.800830322265625,26.800708251953125,26.800830322265625C26.800708251953125,26.800830322265625,17.806438251953125,26.800830322265625,17.806438251953125,26.800830322265625C17.146858251953127,26.800830322265625,16.607208251953125,27.340430322265625,16.607208251953125,28.000030322265623C16.607208251953125,28.659630322265627,17.146858251953127,29.199230322265628,17.806438251953125,29.199230322265628C17.806438251953125,29.199230322265628,26.800708251953125,29.199230322265628,26.800708251953125,29.199230322265628C26.800708251953125,29.199230322265628,26.800708251953125,38.19343032226563,26.800708251953125,38.19343032226563C26.800708251953125,38.853030322265624,27.340308251953125,39.39273032226562,27.999908251953123,39.39273032226562C28.659508251953127,39.39273032226562,29.199108251953128,38.853030322265624,29.199108251953128,38.19343032226563C29.199108251953128,38.19343032226563,29.199108251953128,29.199230322265628,29.199108251953128,29.199230322265628C29.199108251953128,29.199230322265628,38.19330825195313,29.199230322265628,38.19330825195313,29.199230322265628C38.852908251953124,29.199230322265628,39.39260825195312,28.659630322265627,39.39260825195312,28.000030322265623C39.39260825195312,27.340430322265625,38.852908251953124,26.800830322265625,38.19330825195313,26.800830322265625C38.19330825195313,26.800830322265625,38.19340825195313,26.800830322265625,38.19340825195313,26.800830322265625Z" fill="#FFFFFF" fill-opacity="1"/></g></g></svg>